<svg width="435" height="203" viewBox="0 0 435 203" fill="none" xmlns="http://www.w3.org/2000/svg">
<path opacity="0.5" d="M422.489 39.9746H282H281.981L281.963 39.9732L85.0645 25.2181L0.529602 54.0173L8.46454 152.573L97.0068 160.482L224.969 152.535L225.001 152.533L225.034 152.535L342.491 160.481L420.01 152.581L422.489 39.9746Z" fill="#FC9DFF" stroke="#B259B8"/>
<path d="M275.5 45.6527H275.477L275.453 45.6505L142.526 33.1657L8 59.7584V158.264L130.492 171.835L224.428 158.217L224.498 158.207L224.569 158.217L323.003 171.835L430.466 158.275L422.036 45.6527H275.5Z" stroke="#8F1897"/>
<circle r="3" transform="matrix(-1 0 0 1 226.5 157.169)" fill="#8F1897"/>
<circle r="3" transform="matrix(-1 0 0 1 324.5 171.932)" fill="#8F1897"/>
<circle r="3" transform="matrix(-1 0 0 1 361.5 199.187)" fill="#8F1897"/>
<circle r="3" transform="matrix(-1 0 0 1 130.5 171.932)" fill="#8F1897"/>
<circle r="3" transform="matrix(-1 0 0 1 7.5 157.169)" fill="#8F1897"/>
<circle r="3" transform="matrix(-1 0 0 1 7.5 60.644)" fill="#8F1897"/>
<circle r="3" transform="matrix(-1 0 0 1 143.5 32.2544)" fill="#8F1897"/>
<circle r="3" transform="matrix(-1 0 0 1 203.5 3)" fill="#8F1897"/>
<circle r="3" transform="matrix(-1 0 0 1 271.5 45.8813)" fill="#8F1897"/>
<circle r="3" transform="matrix(-1 0 0 1 422.5 45.8813)" fill="#8F1897"/>
<circle r="3" transform="matrix(-1 0 0 1 431.5 157.169)" fill="#8F1897"/>
<line y1="-0.5" x2="82.5011" y2="-0.5" transform="matrix(-0.860595 0.50929 0.417082 0.908869 432.5 158.712)" stroke="#8F1897"/>
<line y1="-0.5" x2="46.7632" y2="-0.5" transform="matrix(0.812605 0.582814 0.486051 -0.873931 324.5 172.339)" stroke="#8F1897"/>
<line y1="-0.5" x2="68.6713" y2="-0.5" transform="matrix(0.902851 -0.429953 -0.346417 -0.938081 142.5 31.5254)" stroke="#8F1897"/>
<line y1="-0.5" x2="83.6806" y2="-0.5" transform="matrix(0.848465 0.529252 0.435442 -0.900217 203.5 2)" stroke="#8F1897"/>
<line y1="-0.5" x2="205.337" y2="-0.5" transform="matrix(-0.9594 0.28205 0.222269 0.974985 204.5 3.13574)" stroke="#8F1897"/>
</svg>
