<svg width="76" height="80" viewBox="0 0 76 80" fill="none" xmlns="http://www.w3.org/2000/svg">
<path d="M38 0L70.909 19V57L38 76L5.09103 57V19L38 0Z" fill="#9E0C9C"/>
<mask id="mask0" mask-type="alpha" maskUnits="userSpaceOnUse" x="5" y="0" width="66" height="76">
<path d="M38 0L70.909 19V57L38 76L5.09103 57V19L38 0Z" fill="#9E0C9C"/>
</mask>
<g mask="url(#mask0)">
<circle opacity="0.6" cx="19" cy="57" r="19" fill="#B121AF"/>
<circle opacity="0.6" cx="64" cy="35" r="14" fill="#B825B6"/>
<circle opacity="0.6" cx="57" cy="16" r="12" fill="#B121AF"/>
<circle opacity="0.6" cx="14.5" cy="6.5" r="20.5" fill="#B82EB6"/>
</g>
<path d="M74.507 17.5V58.5L39 79" stroke="#D85DD5"/>
<path opacity="0.5" d="M39 2.5L44.5 6L7 21L39 2.5Z" fill="#FED6FF"/>
<g clip-path="url(#clip0)" filter="url(#filter0_d)">
<path d="M35.9715 38.3871C35.9715 39.3001 35.2313 40.0402 34.3182 40.0402C33.4052 40.0402 32.6651 39.3001 32.6651 38.3871C32.6651 37.4741 33.4052 36.7339 34.3182 36.7339C35.2313 36.7339 35.9715 37.4741 35.9715 38.3871ZM42.6818 36.7339C41.7688 36.7339 41.0286 37.474 41.0286 38.3871C41.0286 39.3001 41.7689 40.0402 42.6818 40.0402C43.5949 40.0402 44.335 39.3001 44.335 38.3871C44.335 37.4741 43.5949 36.7339 42.6818 36.7339ZM49.7436 43.4635V43.2752C49.5541 43.8251 49.3265 44.3474 49.0818 44.8553C49.1272 45.1666 49.2112 45.6011 49.3525 46.0978C50.0319 47.1486 51.9492 48.4874 53.2638 48.8323C52.555 49.1333 51.7012 49.2573 50.8708 49.1302C51.6315 50.0873 52.7035 50.9564 54.216 51.4736C50.6805 54.6602 44.855 54.731 40.7831 52.2563C39.994 52.4884 39.2229 52.61 38.5001 52.61C37.7772 52.61 37.006 52.4884 36.217 52.2563C32.145 54.7311 26.3197 54.6602 22.7841 51.4736C24.327 50.9461 25.409 50.0519 26.1723 49.072C25.4972 49.0978 24.8273 48.9749 24.2533 48.7312C25.2164 48.4785 26.5027 47.6915 27.3901 46.8756C27.7006 46.0546 27.8505 45.3207 27.9183 44.8552C27.6736 44.3474 27.446 43.8251 27.2566 43.2752V43.4635H25.2572C23.6798 43.4635 22.4011 42.1847 22.4011 40.6073V37.4655C22.4011 36.38 23.0067 35.4361 23.8984 34.9529C23.9283 30.4922 25.2284 27.0085 27.7681 24.6001C30.2872 22.2113 33.898 21 38.5 21C43.1021 21 46.7128 22.2113 49.2319 24.6002C51.7716 27.0086 53.0716 30.4922 53.1016 34.953C53.9933 35.4362 54.5989 36.3801 54.5989 37.4656V40.6073C54.5989 42.1848 53.3202 43.4635 51.7428 43.4635H49.7436ZM48.5539 38.3976C48.5539 37.6626 48.5163 36.9721 48.4607 36.303C47.172 35.1241 44.8146 34.2349 41.842 33.9214C42.3136 34.3442 42.7186 34.908 42.9352 35.713C41.2067 34.4495 37.5842 34.0583 36.3809 32.7045L36.3821 32.7044C34.4668 31.4366 33.9642 29.6207 33.948 30.3723C33.8705 33.9769 31.3157 36.7869 28.4787 37.1833C28.4608 37.5798 28.446 37.9799 28.446 38.3976C28.446 39.9212 28.6948 41.3097 29.1178 42.5611C30.7113 44.4833 33.343 45.026 35.6724 45.1701C36.1048 44.482 37.075 44.0018 38.2049 44.0018C39.7367 44.0018 40.9785 44.8833 40.9785 45.9706C40.9785 47.0581 39.7367 47.9395 38.2049 47.9395C37.0265 47.9395 36.0224 47.4171 35.6205 46.6814C33.9925 46.5868 32.2029 46.3094 30.6079 45.5562C32.8511 48.8624 36.3283 50.6107 38.4998 50.6107C41.9124 50.6106 48.5539 46.2998 48.5539 38.3976ZM50.2832 34.6095H51.3821C51.2004 26.8256 46.7573 22.7137 38.5 22.7137C30.2427 22.7137 25.7997 26.8256 25.618 34.6095H26.7168C27.1186 31.986 27.9678 29.8283 29.2571 28.1693C31.3118 25.5257 34.4215 24.1851 38.5 24.1851C42.5785 24.1851 45.6882 25.5256 47.743 28.1692C49.0322 29.8283 49.8814 31.9859 50.2832 34.6095Z" fill="url(#paint0_linear)"/>
</g>
<defs>
<filter id="filter0_d" x="18" y="21" width="41" height="41" filterUnits="userSpaceOnUse" color-interpolation-filters="sRGB">
<feFlood flood-opacity="0" result="BackgroundImageFix"/>
<feColorMatrix in="SourceAlpha" type="matrix" values="0 0 0 0 0 0 0 0 0 0 0 0 0 0 0 0 0 0 127 0"/>
<feOffset dy="4"/>
<feGaussianBlur stdDeviation="2"/>
<feColorMatrix type="matrix" values="0 0 0 0 0 0 0 0 0 0 0 0 0 0 0 0 0 0 0.25 0"/>
<feBlend mode="normal" in2="BackgroundImageFix" result="effect1_dropShadow"/>
<feBlend mode="normal" in="SourceGraphic" in2="effect1_dropShadow" result="shape"/>
</filter>
<linearGradient id="paint0_linear" x1="38.5" y1="21" x2="38.5" y2="54" gradientUnits="userSpaceOnUse">
<stop stop-color="white"/>
<stop offset="0.755208" stop-color="#FEE0FF"/>
<stop offset="1" stop-color="#FB7BFF"/>
</linearGradient>
<clipPath id="clip0">
<rect width="33" height="33" fill="white" transform="translate(22 21)"/>
</clipPath>
</defs>
</svg>
