<svg width="76" height="80" viewBox="0 0 76 80" fill="none" xmlns="http://www.w3.org/2000/svg">
<path d="M38 0L70.909 19V57L38 76L5.09103 57V19L38 0Z" fill="#9E0C9C"/>
<mask id="mask0" mask-type="alpha" maskUnits="userSpaceOnUse" x="5" y="0" width="66" height="76">
<path d="M38 0L70.909 19V57L38 76L5.09103 57V19L38 0Z" fill="#9E0C9C"/>
</mask>
<g mask="url(#mask0)">
<circle opacity="0.6" cx="19" cy="57" r="19" fill="#B121AF"/>
<circle opacity="0.6" cx="64" cy="35" r="14" fill="#B825B6"/>
<circle opacity="0.6" cx="57" cy="16" r="12" fill="#B121AF"/>
<circle opacity="0.6" cx="14.5" cy="6.5" r="20.5" fill="#B82EB6"/>
</g>
<path d="M74.507 17.5V58.5L39 79" stroke="#D85DD5"/>
<path opacity="0.5" d="M39 2.5L44.5 6L7 21L39 2.5Z" fill="#FED6FF"/>
<g filter="url(#filter0_d)">
<path d="M31.0801 43.3059C29.3261 43.3059 27.9086 44.7284 27.9086 46.4825C27.9086 48.2314 29.3261 49.654 31.0801 49.654C32.8341 49.654 34.2516 48.2314 34.2516 46.4825C34.2516 44.7284 32.8341 43.3059 31.0801 43.3059ZM31.0801 48.0683C30.2031 48.0683 29.4943 47.3543 29.4943 46.4824C29.4943 45.6055 30.2031 44.8966 31.0801 44.8966C31.9571 44.8966 32.6659 45.6055 32.6659 46.4824C32.6658 47.3543 31.9571 48.0683 31.0801 48.0683ZM55 40.9595V44.3461C55 45.1908 54.3152 45.8757 53.4703 45.8757H51.8336C51.5378 43.8463 49.789 42.286 47.678 42.286C45.5722 42.286 43.8232 43.8463 43.5275 45.8757H35.2316C34.9359 43.8463 33.1869 42.286 31.0811 42.286C28.9753 42.286 27.2263 43.8463 26.9307 45.8757H24.8809C24.0361 45.8757 23.3513 45.1909 23.3513 44.3461V40.9595H55ZM47.6821 43.3059C45.9281 43.3059 44.5055 44.7284 44.5055 46.4825C44.5055 48.2314 45.9281 49.654 47.6821 49.654C49.431 49.654 50.8535 48.2314 50.8535 46.4825C50.8535 44.7284 49.431 43.3059 47.6821 43.3059ZM47.6821 48.0683C46.805 48.0683 46.0963 47.3543 46.0963 46.4824C46.0963 45.6055 46.805 44.8966 47.6821 44.8966C48.554 44.8966 49.2678 45.6055 49.2678 46.4824C49.2678 47.3543 48.554 48.0683 47.6821 48.0683ZM54.3973 37.5492L48.3858 31.6039C48.0033 31.2266 47.4884 31.0124 46.9529 31.0124H43.9192V29.8753C43.9192 29.029 43.2359 28.3457 42.3895 28.3457H24.8798C24.0385 28.3457 23.3502 29.029 23.3502 29.8753V30.115L17.1428 30.8304L28.1421 32.2627L17 33.3696L28.1028 34.9481L17 35.9108L23.3506 37.1086L23.3502 40.114H54.9989V38.9972C54.9989 38.4517 54.7797 37.9316 54.3973 37.5492ZM51.7765 37.748H45.9587C45.8261 37.748 45.719 37.641 45.719 37.5084V33.0163C45.719 32.8837 45.8261 32.7766 45.9587 32.7766H47.0651C47.1263 32.7766 47.1875 32.8021 47.2334 32.8429L51.9397 37.3351C52.0977 37.4829 51.9905 37.748 51.7765 37.748Z" fill="url(#paint0_linear)"/>
</g>
<defs>
<filter id="filter0_d" x="13" y="20" width="46" height="46" filterUnits="userSpaceOnUse" color-interpolation-filters="sRGB">
<feFlood flood-opacity="0" result="BackgroundImageFix"/>
<feColorMatrix in="SourceAlpha" type="matrix" values="0 0 0 0 0 0 0 0 0 0 0 0 0 0 0 0 0 0 127 0"/>
<feOffset dy="4"/>
<feGaussianBlur stdDeviation="2"/>
<feColorMatrix type="matrix" values="0 0 0 0 0 0 0 0 0 0 0 0 0 0 0 0 0 0 0.25 0"/>
<feBlend mode="normal" in2="BackgroundImageFix" result="effect1_dropShadow"/>
<feBlend mode="normal" in="SourceGraphic" in2="effect1_dropShadow" result="shape"/>
</filter>
<linearGradient id="paint0_linear" x1="36" y1="28.3457" x2="36" y2="49.654" gradientUnits="userSpaceOnUse">
<stop stop-color="white"/>
<stop offset="0.755208" stop-color="#FEE0FF"/>
<stop offset="1" stop-color="#FB7BFF"/>
</linearGradient>
</defs>
</svg>
