<svg width="74" height="76" viewBox="0 0 74 76" fill="none" xmlns="http://www.w3.org/2000/svg">
<path d="M5.45706 18.7887L37 0.57735L68.5429 18.7887V55.2113L37 73.4226L5.45706 55.2113V18.7887Z" stroke="#D85DD5"/>
<path opacity="0.3" d="M5 55L36 73L5 62.4483V55Z" fill="#FED6FF"/>
<circle cx="37" cy="73" r="3" fill="#D85DD5"/>
<g filter="url(#filter0_d)">
<path d="M44.273 20H29.547C28.1377 20 27 21.1428 27 22.5496V52.453C27 53.8585 28.1377 55 29.547 55H44.273C45.6798 55 46.82 53.8585 46.82 52.453V22.5496C46.82 21.1428 45.6798 20 44.273 20ZM33.2763 21.5484H40.5462C40.7299 21.5484 40.8791 21.8226 40.8791 22.1618C40.8791 22.5011 40.7299 22.7766 40.5462 22.7766H33.2763C33.0914 22.7766 32.9447 22.5011 32.9447 22.1618C32.9447 21.8226 33.0914 21.5484 33.2763 21.5484ZM36.9113 52.4836C36.0146 52.4836 35.2851 51.7541 35.2851 50.8562C35.2851 49.9583 36.0146 49.2313 36.9113 49.2313C37.8053 49.2313 38.5349 49.9583 38.5349 50.8562C38.5349 51.7541 37.8053 52.4836 36.9113 52.4836ZM44.912 46.9113H28.9093V24.302H44.912V46.9113Z" fill="url(#paint0_linear)"/>
</g>
<defs>
<filter id="filter0_d" x="13" y="20" width="43" height="43" filterUnits="userSpaceOnUse" color-interpolation-filters="sRGB">
<feFlood flood-opacity="0" result="BackgroundImageFix"/>
<feColorMatrix in="SourceAlpha" type="matrix" values="0 0 0 0 0 0 0 0 0 0 0 0 0 0 0 0 0 0 127 0"/>
<feOffset dy="4"/>
<feGaussianBlur stdDeviation="2"/>
<feColorMatrix type="matrix" values="0 0 0 0 0 0 0 0 0 0 0 0 0 0 0 0 0 0 0.25 0"/>
<feBlend mode="normal" in2="BackgroundImageFix" result="effect1_dropShadow"/>
<feBlend mode="normal" in="SourceGraphic" in2="effect1_dropShadow" result="shape"/>
</filter>
<linearGradient id="paint0_linear" x1="36.91" y1="20" x2="36.91" y2="55" gradientUnits="userSpaceOnUse">
<stop stop-color="white"/>
<stop offset="0.755208" stop-color="#FEE0FF"/>
<stop offset="1" stop-color="#FB7BFF"/>
</linearGradient>
</defs>
</svg>
